{
  "accessors": [
    {
      "bufferView": 2,
      "componentType": 5126,
      "count": 26282,
      "max": [
        1.4674898386001587,
        1.3957133293151855,
        1.3325326442718506
      ],
      "min": [
        -1.5289435386657715,
        -1.3776240348815918,
        -1.1438935995101929
      ],
      "type": "VEC3"
    },
    {
      "bufferView": 2,
      "byteOffset": 315384,
      "componentType": 5126,
      "count": 26282,
      "max": [
        0.99999034404754639,
        0.99999463558197021,
        0.99998784065246582
      ],
      "min": [
        -0.99987292289733887,
        -0.9999929666519165,
        -0.9999997615814209
      ],
      "type": "VEC3"
    },
    {
      "bufferView": 3,
      "componentType": 5126,
      "count": 26282,
      "max": [
        0.99861657619476318,
        0.91212153434753418,
        0.99998629093170166,
        1
      ],
      "min": [
        -0.99980217218399048,
        -0.93086367845535278,
        -0.9999963641166687,
        1
      ],
      "type": "VEC4"
    },
    {
      "bufferView": 1,
      "componentType": 5126,
      "count": 26282,
      "max": [
        0.98339366912841797,
        0.97441577911376953
      ],
      "min": [
        0.00030815962236374617,
        0
      ],
      "type": "VEC2"
    },
    {
      "bufferView": 1,
      "byteOffset": 210256,
      "componentType": 5126,
      "count": 26282,
      "max": [
        0.98339366912841797,
        0.97441577911376953
      ],
      "min": [
        0.00030815962236374617,
        0
      ],
      "type": "VEC2"
    },
    {
      "bufferView": 0,
      "componentType": 5125,
      "count": 147456,
      "max": [
        26281
      ],
      "min": [
        0
      ],
      "type": "SCALAR"
    },
    {
      "bufferView": 2,
      "byteOffset": 630768,
      "componentType": 5126,
      "count": 1147,
      "max": [
        0.87582826614379883,
        0.46635866165161133,
        -1.1204979419708252
      ],
      "min": [
        -1.3997373580932617,
        -0.48997467756271362,
        -2.2776861190795898
      ],
      "type": "VEC3"
    },
    {
      "bufferView": 2,
      "byteOffset": 644532,
      "componentType": 5126,
      "count": 1147,
      "max": [
        0.99536335468292236,
        0.99942982196807861,
        0.99892961978912354
      ],
      "min": [
        -0.98862767219543457,
        -0.99651116132736206,
        -0.96626830101013184
      ],
      "type": "VEC3"
    },
    {
      "bufferView": 3,
      "byteOffset": 420512,
      "componentType": 5126,
      "count": 1147,
      "max": [
        0.89611667394638062,
        0.99953901767730713,
        0.98934173583984375,
        1
      ],
      "min": [
        -0.95120596885681152,
        -0.99598878622055054,
        -0.99822777509689331,
        1
      ],
      "type": "VEC4"
    },
    {
      "bufferView": 1,
      "byteOffset": 420512,
      "componentType": 5126,
      "count": 1147,
      "max": [
        0.98226344585418701,
        0.99745315313339233
      ],
      "min": [
        0.24598370492458344,
        0
      ],
      "type": "VEC2"
    },
    {
      "bufferView": 1,
      "byteOffset": 429688,
      "componentType": 5126,
      "count": 1147,
      "max": [
        0.98226344585418701,
        0.99745315313339233
      ],
      "min": [
        0.24598370492458344,
        0
      ],
      "type": "VEC2"
    },
    {
      "bufferView": 0,
      "byteOffset": 589824,
      "componentType": 5125,
      "count": 5760,
      "max": [
        1146
      ],
      "min": [
        0
      ],
      "type": "SCALAR"
    },
    {
      "bufferView": 2,
      "byteOffset": 658296,
      "componentType": 5126,
      "count": 321,
      "max": [
        0.50664830207824707,
        0.61392563581466675,
        -0.84775298833847046
      ],
      "min": [
        -0.73840415477752686,
        -0.6030350923538208,
        -1.7912142276763916
      ],
      "type": "VEC3"
    },
    {
      "bufferView": 2,
      "byteOffset": 662148,
      "componentType": 5126,
      "count": 321,
      "max": [
        0.99984002113342285,
        0.99957168102264404,
        0.9946562647819519
      ],
      "min": [
        -0.99866002798080444,
        -0.9987528920173645,
        -0.99818718433380127
      ],
      "type": "VEC3"
    },
    {
      "bufferView": 3,
      "byteOffset": 438864,
      "componentType": 5126,
      "count": 321,
      "max": [
        0.629588782787323,
        0.93458336591720581,
        0.99794197082519531,
        1
      ],
      "min": [
        -0.84658354520797729,
        -0.88078951835632324,
        -0.96076995134353638,
        1
      ],
      "type": "VEC4"
    },
    {
      "bufferView": 1,
      "byteOffset": 438864,
      "componentType": 5126,
      "count": 321,
      "max": [
        0.94389522075653076,
        1
      ],
      "min": [
        0,
        0.21528518199920654
      ],
      "type": "VEC2"
    },
    {
      "bufferView": 1,
      "byteOffset": 441432,
      "componentType": 5126,
      "count": 321,
      "max": [
        0.94389522075653076,
        1
      ],
      "min": [
        0,
        0.21528518199920654
      ],
      "type": "VEC2"
    },
    {
      "bufferView": 0,
      "byteOffset": 612864,
      "componentType": 5125,
      "count": 1440,
      "max": [
        320
      ],
      "min": [
        0
      ],
      "type": "SCALAR"
    },
    {
      "bufferView": 2,
      "byteOffset": 666000,
      "componentType": 5126,
      "count": 336,
      "max": [
        0.90958678722381592,
        -0.77394163608551025,
        1.2788574695587158
      ],
      "min": [
        -0.90958684682846069,
        -0.9652550220489502,
        0.55952233076095581
      ],
      "type": "VEC3"
    },
    {
      "bufferView": 2,
      "byteOffset": 670032,
      "componentType": 5126,
      "count": 336,
      "max": [
        0.98338627815246582,
        0.98583686351776123,
        0.97492551803588867
      ],
      "min": [
        -0.98338627815246582,
        -0.98353749513626099,
        -0.9769439697265625
      ],
      "type": "VEC3"
    },
    {
      "bufferView": 3,
      "byteOffset": 444000,
      "componentType": 5126,
      "count": 336,
      "max": [
        0.99775165319442749,
        0.9983171820640564,
        0.94424945116043091,
        1
      ],
      "min": [
        -0.99775165319442749,
        -0.99212747812271118,
        -0.96631926298141479,
        -1
      ],
      "type": "VEC4"
    },
    {
      "bufferView": 1,
      "byteOffset": 444000,
      "componentType": 5126,
      "count": 336,
      "max": [
        1,
        0.89896529912948608
      ],
      "min": [
        0.37500631809234619,
        0.21528518199920654
      ],
      "type": "VEC2"
    },
    {
      "bufferView": 1,
      "byteOffset": 446688,
      "componentType": 5126,
      "count": 336,
      "max": [
        1,
        0.89896529912948608
      ],
      "min": [
        0.37500631809234619,
        0.21528518199920654
      ],
      "type": "VEC2"
    },
    {
      "bufferView": 0,
      "byteOffset": 618624,
      "componentType": 5125,
      "count": 1248,
      "max": [
        335
      ],
      "min": [
        0
      ],
      "type": "SCALAR"
    },
    {
      "bufferView": 2,
      "byteOffset": 674064,
      "componentType": 5126,
      "count": 438,
      "max": [
        0.8989112377166748,
        -1.1118240356445312,
        -0.0035791397094726562
      ],
      "min": [
        -0.99821162223815918,
        -1.3733208179473877,
        -0.46299147605895996
      ],
      "type": "VEC3"
    },
    {
      "bufferView": 2,
      "byteOffset": 679320,
      "componentType": 5126,
      "count": 438,
      "max": [
        0.98915213346481323,
        0.94661778211593628,
        0.94682782888412476
      ],
      "min": [
        -0.98988401889801025,
        -0.99816441535949707,
        -0.91023939847946167
      ],
      "type": "VEC3"
    },
    {
      "bufferView": 3,
      "byteOffset": 449376,
      "componentType": 5126,
      "count": 438,
      "max": [
        0.99976885318756104,
        0.70339900255203247,
        0.46211773157119751,
        1
      ],
      "min": [
        -0.88665103912353516,
        -0.97772675752639771,
        -0.94693934917449951,
        1
      ],
      "type": "VEC4"
    },
    {
      "bufferView": 1,
      "byteOffset": 449376,
      "componentType": 5126,
      "count": 438,
      "max": [
        0.95119094848632812,
        0.98120051622390747
      ],
      "min": [
        0.17143748700618744,
        0.14082039892673492
      ],
      "type": "VEC2"
    },
    {
      "bufferView": 1,
      "byteOffset": 452880,
      "componentType": 5126,
      "count": 438,
      "max": [
        0.95119094848632812,
        0.98120051622390747
      ],
      "min": [
        0.17143748700618744,
        0.14082039892673492
      ],
      "type": "VEC2"
    },
    {
      "bufferView": 0,
      "byteOffset": 623616,
      "componentType": 5125,
      "count": 1920,
      "max": [
        437
      ],
      "min": [
        0
      ],
      "type": "SCALAR"
    }
  ],
  "asset": {
    "extras": {
      "author": "ValentinDebels (https://sketchfab.com/ValentinDebels)",
      "license": "CC-BY-4.0 (http://creativecommons.org/licenses/by/4.0/)",
      "source": "https://sketchfab.com/3d-models/goomba-72deb7ca37eb4bfe9c31bbd94b8a1f24",
      "title": "Goomba"
    },
    "generator": "Sketchfab-6.44.0",
    "version": "2.0"
  },
  "bufferViews": [
    {
      "buffer": 0,
      "byteLength": 631296,
      "byteOffset": 0,
      "name": "floatBufferViews",
      "target": 34963
    },
    {
      "buffer": 0,
      "byteLength": 456384,
      "byteOffset": 631296,
      "byteStride": 8,
      "name": "floatBufferViews",
      "target": 34962
    },
    {
      "buffer": 0,
      "byteLength": 684576,
      "byteOffset": 1087680,
      "byteStride": 12,
      "name": "floatBufferViews",
      "target": 34962
    },
    {
      "buffer": 0,
      "byteLength": 456384,
      "byteOffset": 1772256,
      "byteStride": 16,
      "name": "floatBufferViews",
      "target": 34962
    }
  ],
  "buffers": [
    {
      "byteLength": 2228640,
      "uri": "scene.bin"
    }
  ],
  "images": [
    {
      "uri": "textures/goomba_baseColor.png"
    },
    {
      "uri": "textures/goomba_metallicRoughness.png"
    }
  ],
  "materials": [
    {
      "doubleSided": true,
      "emissiveFactor": [
        0,
        0,
        0
      ],
      "name": "goomba",
      "pbrMetallicRoughness": {
        "baseColorFactor": [
          1,
          1,
          1,
          1
        ],
        "baseColorTexture": {
          "index": 0,
          "texCoord": 0
        },
        "metallicFactor": 0,
        "metallicRoughnessTexture": {
          "index": 1,
          "texCoord": 0
        },
        "roughnessFactor": 1
      }
    }
  ],
  "meshes": [
    {
      "name": "Tete_goomba_0",
      "primitives": [
        {
          "attributes": {
            "NORMAL": 1,
            "POSITION": 0,
            "TANGENT": 2,
            "TEXCOORD_0": 3,
            "TEXCOORD_1": 4
          },
          "indices": 5,
          "material": 0,
          "mode": 4
        }
      ]
    },
    {
      "name": "Pieds_goomba_0",
      "primitives": [
        {
          "attributes": {
            "NORMAL": 7,
            "POSITION": 6,
            "TANGENT": 8,
            "TEXCOORD_0": 9,
            "TEXCOORD_1": 10
          },
          "indices": 11,
          "material": 0,
          "mode": 4
        }
      ]
    },
    {
      "name": "corps_goomba_0",
      "primitives": [
        {
          "attributes": {
            "NORMAL": 13,
            "POSITION": 12,
            "TANGENT": 14,
            "TEXCOORD_0": 15,
            "TEXCOORD_1": 16
          },
          "indices": 17,
          "material": 0,
          "mode": 4
        }
      ]
    },
    {
      "name": "sourcils_goomba_0",
      "primitives": [
        {
          "attributes": {
            "NORMAL": 19,
            "POSITION": 18,
            "TANGENT": 20,
            "TEXCOORD_0": 21,
            "TEXCOORD_1": 22
          },
          "indices": 23,
          "material": 0,
          "mode": 4
        }
      ]
    },
    {
      "name": "dents_goomba_0",
      "primitives": [
        {
          "attributes": {
            "NORMAL": 25,
            "POSITION": 24,
            "TANGENT": 26,
            "TEXCOORD_0": 27,
            "TEXCOORD_1": 28
          },
          "indices": 29,
          "material": 0,
          "mode": 4
        }
      ]
    }
  ],
  "nodes": [
    {
      "children": [
        1
      ],
      "name": "RootNode (gltf orientation matrix)",
      "rotation": [
        -0.70710678118654746,
        -0,
        -0,
        0.70710678118654757
      ]
    },
    {
      "children": [
        2
      ],
      "name": "RootNode (model correction matrix)"
    },
    {
      "children": [
        3
      ],
      "matrix": [
        1,
        0,
        0,
        0,
        0,
        0,
        1,
        0,
        0,
        -1,
        0,
        0,
        0,
        0,
        0,
        1
      ],
      "name": "3c46beb39ae14cfeadefe2313cecacd6.fbx"
    },
    {
      "children": [
        4,
        7,
        9,
        11,
        13,
        15,
        17
      ],
      "name": "RootNode"
    },
    {
      "children": [
        5
      ],
      "matrix": [
        -29.08647719990347,
        -5.5189064575668629,
        -95.517119101714371,
        0,
        56.639309131094492,
        79.467234285632031,
        -21.839123978419661,
        0,
        77.110087759933748,
        -60.452463565620441,
        -19.988346967737169,
        0,
        407.62454223632812,
        590.38623046875,
        -100.54539489746094,
        1
      ],
      "name": "Light"
    },
    {
      "children": [
        6
      ],
      "matrix": [
        1,
        0,
        0,
        0,
        0,
        2.2204460492503131e-16,
        1,
        0,
        0,
        -1,
        2.2204460492503131e-16,
        0,
        0,
        0,
        0,
        1
      ],
      "name": ""
    },
    {
      "name": ""
    },
    {
      "children": [
        8
      ],
      "matrix": [
        -65.155832803290963,
        -44.527135765708579,
        -61.417030473735487,
        0,
        -32.40134137821245,
        89.539574512336159,
        -30.542088974418615,
        0,
        68.592054721299746,
        -1.0718647115348782e-05,
        -72.767633623962695,
        0,
        735.88916015625,
        495.8309326171875,
        692.5791015625,
        1
      ],
      "name": "Camera"
    },
    {
      "name": ""
    },
    {
      "children": [
        10
      ],
      "matrix": [
        100,
        0,
        0,
        0,
        -0,
        -1.6292067939183141e-05,
        -99.999999999998678,
        0,
        0,
        99.999999999998678,
        -1.6292067939183141e-05,
        0,
        -45.808151245117188,
        43.812263488769531,
        0.51773428916931152,
        1
      ],
      "name": "Tete"
    },
    {
      "mesh": 0,
      "name": "Tete_goomba_0"
    },
    {
      "children": [
        12
      ],
      "matrix": [
        100,
        0,
        0,
        0,
        -0,
        -1.6292067939183141e-05,
        -99.999999999998678,
        0,
        0,
        99.999999999998678,
        -1.6292067939183141e-05,
        0,
        -45.808151245117188,
        43.812263488769531,
        0.51773428916931152,
        1
      ],
      "name": "Pieds"
    },
    {
      "mesh": 1,
      "name": "Pieds_goomba_0"
    },
    {
      "children": [
        14
      ],
      "matrix": [
        100,
        0,
        0,
        0,
        -0,
        -1.6292067939183141e-05,
        -99.999999999998678,
        0,
        0,
        99.999999999998678,
        -1.6292067939183141e-05,
        0,
        -45.808151245117188,
        43.812263488769531,
        0.51773428916931152,
        1
      ],
      "name": "corps"
    },
    {
      "mesh": 2,
      "name": "corps_goomba_0"
    },
    {
      "children": [
        16
      ],
      "matrix": [
        100,
        0,
        0,
        0,
        -0,
        -1.6292067939183141e-05,
        -99.999999999998678,
        0,
        0,
        99.999999999998678,
        -1.6292067939183141e-05,
        0,
        -45.808151245117188,
        43.812263488769531,
        0.51773428916931152,
        1
      ],
      "name": "sourcils"
    },
    {
      "mesh": 3,
      "name": "sourcils_goomba_0"
    },
    {
      "children": [
        18
      ],
      "matrix": [
        100,
        0,
        0,
        0,
        -0,
        -1.6292067939183141e-05,
        -99.999999999998678,
        0,
        0,
        99.999999999998678,
        -1.6292067939183141e-05,
        0,
        -45.808151245117188,
        43.812263488769531,
        0.51773428916931152,
        1
      ],
      "name": "dents"
    },
    {
      "mesh": 4,
      "name": "dents_goomba_0"
    }
  ],
  "samplers": [
    {
      "magFilter": 9729,
      "minFilter": 9987,
      "wrapS": 10497,
      "wrapT": 10497
    }
  ],
  "scene": 0,
  "scenes": [
    {
      "name": "OSG_Scene",
      "nodes": [
        0
      ]
    }
  ],
  "textures": [
    {
      "sampler": 0,
      "source": 0
    },
    {
      "sampler": 0,
      "source": 1
    }
  ]
}

