{
  "accessors": [
    {
      "bufferView": 1,
      "componentType": 5126,
      "count": 375,
      "max": [
        0.45844000577926636,
        0.77548998594284058,
        0.71749001741409302
      ],
      "min": [
        -0.75177001953125,
        -0.56832998991012573,
        0.33687999844551086
      ],
      "type": "VEC3"
    },
    {
      "bufferView": 1,
      "byteOffset": 4500,
      "componentType": 5126,
      "count": 375,
      "max": [
        0.087560892105102539,
        0.27338317036628723,
        -0.78059470653533936
      ],
      "min": [
        -0.60033631324768066,
        -0.46666854619979858,
        -0.99995714426040649
      ],
      "type": "VEC3"
    },
    {
      "bufferView": 0,
      "componentType": 5125,
      "count": 2040,
      "max": [
        374
      ],
      "min": [
        0
      ],
      "type": "SCALAR"
    },
    {
      "bufferView": 1,
      "byteOffset": 9000,
      "componentType": 5126,
      "count": 375,
      "max": [
        0.26438999176025391,
        0.58985000848770142,
        -0.41703000664710999
      ],
      "min": [
        -0.83280998468399048,
        -0.57131999731063843,
        -0.61586999893188477
      ],
      "type": "VEC3"
    },
    {
      "bufferView": 1,
      "byteOffset": 13500,
      "componentType": 5126,
      "count": 375,
      "max": [
        0.042939979583024979,
        0.30226981639862061,
        -0.91328740119934082
      ],
      "min": [
        -0.33930796384811401,
        -0.35960423946380615,
        -0.99976044893264771
      ],
      "type": "VEC3"
    },
    {
      "bufferView": 0,
      "byteOffset": 8160,
      "componentType": 5125,
      "count": 2040,
      "max": [
        374
      ],
      "min": [
        0
      ],
      "type": "SCALAR"
    },
    {
      "bufferView": 1,
      "byteOffset": 18000,
      "componentType": 5126,
      "count": 375,
      "max": [
        0.15188999474048615,
        0.81521999835968018,
        0.0035300001036375761
      ],
      "min": [
        -0.80921000242233276,
        -0.27856001257896423,
        -0.47552001476287842
      ],
      "type": "VEC3"
    },
    {
      "bufferView": 1,
      "byteOffset": 22500,
      "componentType": 5126,
      "count": 375,
      "max": [
        0.17515510320663452,
        0.79917609691619873,
        -0.53085726499557495
      ],
      "min": [
        -0.6393439769744873,
        -0.27961638569831848,
        -0.99957907199859619
      ],
      "type": "VEC3"
    },
    {
      "bufferView": 0,
      "byteOffset": 16320,
      "componentType": 5125,
      "count": 2040,
      "max": [
        374
      ],
      "min": [
        0
      ],
      "type": "SCALAR"
    },
    {
      "bufferView": 1,
      "byteOffset": 27000,
      "componentType": 5126,
      "count": 375,
      "max": [
        0.44420000910758972,
        0.49189001321792603,
        0.00041000000783242285
      ],
      "min": [
        -0.80902999639511108,
        -0.98010998964309692,
        -0.44301998615264893
      ],
      "type": "VEC3"
    },
    {
      "bufferView": 1,
      "byteOffset": 31500,
      "componentType": 5126,
      "count": 375,
      "max": [
        0.16587604582309723,
        0.20167246460914612,
        -0.67355179786682129
      ],
      "min": [
        -0.71057075262069702,
        -0.39894983172416687,
        -0.99986022710800171
      ],
      "type": "VEC3"
    },
    {
      "bufferView": 0,
      "byteOffset": 24480,
      "componentType": 5125,
      "count": 2040,
      "max": [
        374
      ],
      "min": [
        0
      ],
      "type": "SCALAR"
    },
    {
      "bufferView": 1,
      "byteOffset": 36000,
      "componentType": 5126,
      "count": 375,
      "max": [
        0.47615998983383179,
        0.53108000755310059,
        0.017750000581145287
      ],
      "min": [
        -0.45616000890731812,
        -0.83641999959945679,
        -0.29427999258041382
      ],
      "type": "VEC3"
    },
    {
      "bufferView": 1,
      "byteOffset": 40500,
      "componentType": 5126,
      "count": 375,
      "max": [
        0.26273718476295471,
        0.37044385075569153,
        -0.68326336145401001
      ],
      "min": [
        -0.70990860462188721,
        -0.45204973220825195,
        -0.99890738725662231
      ],
      "type": "VEC3"
    },
    {
      "bufferView": 0,
      "byteOffset": 32640,
      "componentType": 5125,
      "count": 2040,
      "max": [
        374
      ],
      "min": [
        0
      ],
      "type": "SCALAR"
    },
    {
      "bufferView": 1,
      "byteOffset": 45000,
      "componentType": 5126,
      "count": 31744,
      "max": [
        0.98803001642227173,
        0.98803001642227173,
        1.6412999629974365
      ],
      "min": [
        -0.98803001642227173,
        -0.98803001642227173,
        -0.99843001365661621
      ],
      "type": "VEC3"
    },
    {
      "bufferView": 1,
      "byteOffset": 425928,
      "componentType": 5126,
      "count": 31744,
      "max": [
        0.99950927495956421,
        0.99950927495956421,
        0.9840509295463562
      ],
      "min": [
        -0.99950927495956421,
        -0.99950927495956421,
        -0.9964563250541687
      ],
      "type": "VEC3"
    },
    {
      "bufferView": 0,
      "byteOffset": 40800,
      "componentType": 5125,
      "count": 47616,
      "max": [
        31743
      ],
      "min": [
        0
      ],
      "type": "SCALAR"
    }
  ],
  "asset": {
    "extras": {
      "author": "Sir-Yas (https://sketchfab.com/yas2yas)",
      "license": "CC-BY-4.0 (http://creativecommons.org/licenses/by/4.0/)",
      "source": "https://sketchfab.com/3d-models/yoshi-egg-2125c39434ed4b3696bdff0a0bdb6fb2",
      "title": "Yoshi Egg"
    },
    "generator": "Sketchfab-5.32.0",
    "version": "2.0"
  },
  "bufferViews": [
    {
      "buffer": 0,
      "byteLength": 231264,
      "byteOffset": 0,
      "name": "floatBufferViews",
      "target": 34963
    },
    {
      "buffer": 0,
      "byteLength": 806856,
      "byteOffset": 231264,
      "byteStride": 12,
      "name": "floatBufferViews",
      "target": 34962
    }
  ],
  "buffers": [
    {
      "byteLength": 1038120,
      "uri": "scene.bin"
    }
  ],
  "materials": [
    {
      "doubleSided": true,
      "emissiveFactor": [
        0,
        0,
        0
      ],
      "name": "Material.001",
      "pbrMetallicRoughness": {
        "baseColorFactor": [
          1,
          1,
          1,
          1
        ],
        "metallicFactor": 0,
        "roughnessFactor": 0.59999999999999998
      }
    },
    {
      "doubleSided": true,
      "emissiveFactor": [
        0,
        0,
        0
      ],
      "name": "Material",
      "pbrMetallicRoughness": {
        "baseColorFactor": [
          0.018431322600000001,
          1,
          0.029650231799999999,
          1
        ],
        "metallicFactor": 0,
        "roughnessFactor": 0.59999999999999998
      }
    },
    {
      "doubleSided": true,
      "emissiveFactor": [
        0,
        0,
        0
      ],
      "name": "Material.003",
      "pbrMetallicRoughness": {
        "baseColorFactor": [
          0.018431322600000001,
          1,
          0.029650231799999999,
          1
        ],
        "metallicFactor": 0,
        "roughnessFactor": 0.59999999999999998
      }
    },
    {
      "doubleSided": true,
      "emissiveFactor": [
        0,
        0,
        0
      ],
      "name": "Material.005",
      "pbrMetallicRoughness": {
        "baseColorFactor": [
          0.018431322600000001,
          1,
          0.029650231799999999,
          1
        ],
        "metallicFactor": 0,
        "roughnessFactor": 0.59999999999999998
      }
    },
    {
      "doubleSided": true,
      "emissiveFactor": [
        0,
        0,
        0
      ],
      "name": "Material.007",
      "pbrMetallicRoughness": {
        "baseColorFactor": [
          0.018431322600000001,
          1,
          0.029650231799999999,
          1
        ],
        "metallicFactor": 0,
        "roughnessFactor": 0.59999999999999998
      }
    }
  ],
  "meshes": [
    {
      "name": "Cylinder.004_0",
      "primitives": [
        {
          "attributes": {
            "NORMAL": 1,
            "POSITION": 0
          },
          "indices": 2,
          "material": 4,
          "mode": 4
        }
      ]
    },
    {
      "name": "Cylinder.003_0",
      "primitives": [
        {
          "attributes": {
            "NORMAL": 4,
            "POSITION": 3
          },
          "indices": 5,
          "material": 3,
          "mode": 4
        }
      ]
    },
    {
      "name": "Cylinder.002_0",
      "primitives": [
        {
          "attributes": {
            "NORMAL": 7,
            "POSITION": 6
          },
          "indices": 8,
          "material": 2,
          "mode": 4
        }
      ]
    },
    {
      "name": "Cylinder.001_0",
      "primitives": [
        {
          "attributes": {
            "NORMAL": 10,
            "POSITION": 9
          },
          "indices": 11,
          "material": 1,
          "mode": 4
        }
      ]
    },
    {
      "name": "Cylinder_0",
      "primitives": [
        {
          "attributes": {
            "NORMAL": 13,
            "POSITION": 12
          },
          "indices": 14,
          "material": 1,
          "mode": 4
        }
      ]
    },
    {
      "name": "Sphere_0",
      "primitives": [
        {
          "attributes": {
            "NORMAL": 16,
            "POSITION": 15
          },
          "indices": 17,
          "material": 0,
          "mode": 4
        }
      ]
    }
  ],
  "nodes": [
    {
      "children": [
        1
      ],
      "name": "RootNode (gltf orientation matrix)",
      "rotation": [
        -0.70710678118654746,
        -0,
        -0,
        0.70710678118654757
      ]
    },
    {
      "children": [
        2
      ],
      "name": "RootNode (model correction matrix)"
    },
    {
      "children": [
        3,
        5,
        7,
        9,
        11,
        13
      ],
      "name": "Root"
    },
    {
      "children": [
        4
      ],
      "matrix": [
        -0.45742000000000005,
        -0.26415,
        -0.28907000000000005,
        0,
        0.19098000000000004,
        -0.53854999999999997,
        0.18990000000000004,
        0,
        -0.3418500000000001,
        0.052570000000000013,
        0.49289000000000005,
        0,
        0.7412700000000001,
        0.10951000000000001,
        -0.96912000000000009,
        1
      ],
      "name": "Cylinder.004"
    },
    {
      "mesh": 0,
      "name": "Cylinder.004_0"
    },
    {
      "children": [
        6
      ],
      "matrix": [
        -0.35571000000000003,
        -0.23164999999999999,
        -0.31410000000000005,
        0,
        0.13886000000000001,
        -0.47228999999999999,
        0.19106000000000004,
        0,
        -0.36474000000000001,
        0.046100000000000016,
        0.37906000000000006,
        0,
        -0.8672700000000001,
        -0.037060000000000003,
        1.3417899999999998,
        1
      ],
      "name": "Cylinder.003"
    },
    {
      "mesh": 1,
      "name": "Cylinder.003_0"
    },
    {
      "children": [
        8
      ],
      "matrix": [
        -0.19323000000000004,
        -0.49056000000000005,
        -0.98614999999999997,
        0,
        -0.012740000000000003,
        -1.0001500000000001,
        0.50000999999999995,
        0,
        -1.1013500000000001,
        0.097630000000000036,
        0.16724000000000006,
        0,
        -1.0796599999999998,
        0.31675000000000003,
        -0.53132000000000001,
        1
      ],
      "name": "Cylinder.002"
    },
    {
      "mesh": 2,
      "name": "Cylinder.002_0"
    },
    {
      "children": [
        10
      ],
      "matrix": [
        -0.38394000000000006,
        0.65001000000000009,
        -0.16476000000000005,
        0,
        -0.34099000000000007,
        -0.025780000000000004,
        0.69291000000000014,
        0,
        0.57739000000000007,
        0.41700000000000004,
        0.29965000000000003,
        0,
        0.35788000000000009,
        0.84443000000000001,
        0.95704000000000011,
        1
      ],
      "name": "Cylinder.001"
    },
    {
      "mesh": 3,
      "name": "Cylinder.001_0"
    },
    {
      "children": [
        12
      ],
      "matrix": [
        1.12676,
        0,
        0,
        0,
        0,
        0.069520000000000026,
        1.12462,
        0,
        0,
        -1.12462,
        0.069520000000000026,
        0,
        0.19318000000000002,
        -0.94962000000000013,
        0.55730999999999997,
        1
      ],
      "name": "Cylinder"
    },
    {
      "mesh": 4,
      "name": "Cylinder_0"
    },
    {
      "children": [
        14
      ],
      "name": "Sphere"
    },
    {
      "mesh": 5,
      "name": "Sphere_0"
    }
  ],
  "scene": 0,
  "scenes": [
    {
      "name": "OSG_Scene",
      "nodes": [
        0
      ]
    }
  ]
}

