{
    "asset" : {
        "generator" : "Khronos glTF Blender I/O v1.2.75",
        "version" : "2.0"
    },
    "scene" : 0,
    "scenes" : [
        {
            "name" : "Scene",
            "nodes" : [
                9
            ]
        }
    ],
    "nodes" : [
        {
            "mesh" : 0,
            "name" : "Mesh_1"
        },
        {
            "mesh" : 1,
            "name" : "Mesh_2"
        },
        {
            "mesh" : 2,
            "name" : "Mesh_3"
        },
        {
            "mesh" : 3,
            "name" : "Mesh_4"
        },
        {
            "children" : [
                0,
                1,
                2,
                3
            ],
            "name" : "Circle_1"
        },
        {
            "name" : "Plane.002_0"
        },
        {
            "children" : [
                4,
                5
            ],
            "name" : "GLTF_SceneRootNode",
            "rotation" : [
                0.7071068286895752,
                0,
                0,
                0.7071068286895752
            ]
        },
        {
            "children" : [
                6
            ],
            "name" : "root"
        },
        {
            "children" : [
                7
            ],
            "name" : "RootNode (model correction matrix)"
        },
        {
            "children" : [
                8
            ],
            "name" : "RootNode (gltf orientation matrix)",
            "rotation" : [
                -0.7071067690849304,
                0,
                0,
                0.7071067690849304
            ],
            "translation" : [
                0.003071822226047516,
                -0.1642354130744934,
                0.0022786646150052547
            ]
        }
    ],
    "materials" : [
        {
            "doubleSided" : true,
            "emissiveFactor" : [
                0,
                0,
                0
            ],
            "name" : "Material.001",
            "pbrMetallicRoughness" : {
                "baseColorFactor" : [
                    0.03053399920463562,
                    0.800000011920929,
                    0,
                    1
                ],
                "metallicFactor" : 0,
                "roughnessFactor" : 0.5
            }
        },
        {
            "doubleSided" : true,
            "emissiveFactor" : [
                0,
                0,
                0
            ],
            "name" : "Material.002",
            "pbrMetallicRoughness" : {
                "baseColorFactor" : [
                    0.008445000275969505,
                    0.3505550026893616,
                    0,
                    1
                ],
                "metallicFactor" : 0,
                "roughnessFactor" : 0.5
            }
        },
        {
            "doubleSided" : true,
            "emissiveFactor" : [
                0,
                0,
                0
            ],
            "name" : "material",
            "pbrMetallicRoughness" : {
                "baseColorTexture" : {
                    "index" : 0,
                    "texCoord" : 0
                },
                "metallicFactor" : 0,
                "roughnessFactor" : 0.5
            }
        },
        {
            "doubleSided" : true,
            "emissiveFactor" : [
                0,
                0,
                0
            ],
            "name" : "material_4",
            "pbrMetallicRoughness" : {
                "baseColorFactor" : [
                    0.800000011920929,
                    0.800000011920929,
                    0.800000011920929,
                    1
                ],
                "metallicFactor" : 0,
                "roughnessFactor" : 0.5
            }
        }
    ],
    "meshes" : [
        {
            "name" : "Mesh_1",
            "primitives" : [
                {
                    "attributes" : {
                        "POSITION" : 0,
                        "NORMAL" : 1,
                        "TEXCOORD_0" : 2
                    },
                    "indices" : 3,
                    "material" : 0
                }
            ]
        },
        {
            "name" : "Mesh_2",
            "primitives" : [
                {
                    "attributes" : {
                        "POSITION" : 4,
                        "NORMAL" : 5,
                        "TEXCOORD_0" : 6
                    },
                    "indices" : 7,
                    "material" : 1
                }
            ]
        },
        {
            "name" : "Mesh_3",
            "primitives" : [
                {
                    "attributes" : {
                        "POSITION" : 8,
                        "NORMAL" : 9,
                        "TEXCOORD_0" : 10
                    },
                    "indices" : 11,
                    "material" : 2
                }
            ]
        },
        {
            "name" : "Mesh_4",
            "primitives" : [
                {
                    "attributes" : {
                        "POSITION" : 12,
                        "NORMAL" : 13,
                        "TEXCOORD_0" : 14
                    },
                    "indices" : 15,
                    "material" : 3
                }
            ]
        }
    ],
    "textures" : [
        {
            "source" : 0
        }
    ],
    "images" : [
        {
            "mimeType" : "image/png",
            "name" : "material_baseColor",
            "uri" : "material_baseColor.png"
        }
    ],
    "accessors" : [
        {
            "bufferView" : 0,
            "componentType" : 5126,
            "count" : 1653,
            "max" : [
                0.43672648072242737,
                1.2583142518997192,
                0.44202274084091187
            ],
            "min" : [
                -0.4545400142669678,
                0.19666381180286407,
                -0.4492436945438385
            ],
            "type" : "VEC3"
        },
        {
            "bufferView" : 1,
            "componentType" : 5126,
            "count" : 1653,
            "type" : "VEC3"
        },
        {
            "bufferView" : 2,
            "componentType" : 5126,
            "count" : 1653,
            "type" : "VEC2"
        },
        {
            "bufferView" : 3,
            "componentType" : 5123,
            "count" : 8130,
            "type" : "SCALAR"
        },
        {
            "bufferView" : 4,
            "componentType" : 5126,
            "count" : 2996,
            "max" : [
                0.5488662719726562,
                1.858784794807434,
                0.5222777724266052
            ],
            "min" : [
                -0.31257468461990356,
                0.40939635038375854,
                -0.6163879632949829
            ],
            "type" : "VEC3"
        },
        {
            "bufferView" : 5,
            "componentType" : 5126,
            "count" : 2996,
            "type" : "VEC3"
        },
        {
            "bufferView" : 6,
            "componentType" : 5126,
            "count" : 2996,
            "type" : "VEC2"
        },
        {
            "bufferView" : 7,
            "componentType" : 5123,
            "count" : 17544,
            "type" : "SCALAR"
        },
        {
            "bufferView" : 8,
            "componentType" : 5126,
            "count" : 1116,
            "max" : [
                1.3041770458221436,
                1.9242254495620728,
                -0.05964598432183266
            ],
            "min" : [
                0.2809722125530243,
                0.900948703289032,
                -1.0840423107147217
            ],
            "type" : "VEC3"
        },
        {
            "bufferView" : 9,
            "componentType" : 5126,
            "count" : 1116,
            "type" : "VEC3"
        },
        {
            "bufferView" : 10,
            "componentType" : 5126,
            "count" : 1116,
            "type" : "VEC2"
        },
        {
            "bufferView" : 11,
            "componentType" : 5123,
            "count" : 4938,
            "type" : "SCALAR"
        },
        {
            "bufferView" : 12,
            "componentType" : 5126,
            "count" : 897,
            "max" : [
                1.3041770458221436,
                1.4742467403411865,
                -0.08798062056303024
            ],
            "min" : [
                0.464550256729126,
                0.900948703289032,
                -1.0840423107147217
            ],
            "type" : "VEC3"
        },
        {
            "bufferView" : 13,
            "componentType" : 5126,
            "count" : 897,
            "type" : "VEC3"
        },
        {
            "bufferView" : 14,
            "componentType" : 5126,
            "count" : 897,
            "type" : "VEC2"
        },
        {
            "bufferView" : 15,
            "componentType" : 5123,
            "count" : 2574,
            "type" : "SCALAR"
        }
    ],
    "bufferViews" : [
        {
            "buffer" : 0,
            "byteLength" : 19836,
            "byteOffset" : 0
        },
        {
            "buffer" : 0,
            "byteLength" : 19836,
            "byteOffset" : 19836
        },
        {
            "buffer" : 0,
            "byteLength" : 13224,
            "byteOffset" : 39672
        },
        {
            "buffer" : 0,
            "byteLength" : 16260,
            "byteOffset" : 52896
        },
        {
            "buffer" : 0,
            "byteLength" : 35952,
            "byteOffset" : 69156
        },
        {
            "buffer" : 0,
            "byteLength" : 35952,
            "byteOffset" : 105108
        },
        {
            "buffer" : 0,
            "byteLength" : 23968,
            "byteOffset" : 141060
        },
        {
            "buffer" : 0,
            "byteLength" : 35088,
            "byteOffset" : 165028
        },
        {
            "buffer" : 0,
            "byteLength" : 13392,
            "byteOffset" : 200116
        },
        {
            "buffer" : 0,
            "byteLength" : 13392,
            "byteOffset" : 213508
        },
        {
            "buffer" : 0,
            "byteLength" : 8928,
            "byteOffset" : 226900
        },
        {
            "buffer" : 0,
            "byteLength" : 9876,
            "byteOffset" : 235828
        },
        {
            "buffer" : 0,
            "byteLength" : 10764,
            "byteOffset" : 245704
        },
        {
            "buffer" : 0,
            "byteLength" : 10764,
            "byteOffset" : 256468
        },
        {
            "buffer" : 0,
            "byteLength" : 7176,
            "byteOffset" : 267232
        },
        {
            "buffer" : 0,
            "byteLength" : 5148,
            "byteOffset" : 274408
        }
    ],
    "buffers" : [
        {
            "byteLength" : 279556,
            "uri" : "scene.bin"
        }
    ]
}
